<svg viewBox="0 0 512 512" xmlns="http://www.w3.org/2000/svg">
  <path fill="#4834d4" d="M256+256L256+512L420.75+512C471.138+512+512+469.263+512+416.562L512+256L256+256Z" />
  <path fill="#f0932b" d="M256+256L512+256L512+91.25C512+40.8621+469.263+1.13687e-13+416.562+0L256+0L256+256Z" />
  <path fill="#6ab04c" d="M256+256L256+2.27374e-13L91.25+0C40.8621-2.03451e-05+1.13687e-13+42.7366+0+95.4375L0+256L256+256Z"/>
  <path fill="#eb4d4b" d="M256+256L2.41585e-13+256L0+420.75C-2.03451e-05+471.138+42.7366+512+95.4375+512L256+512L256+256Z" />
</svg>
