<svg xmlns="http://www.w3.org/2000/svg" viewBox="0 0 959 354">
  <path fill="#6ab04c" d="M84.6+354C74.6+354+65.8+351+58.2+345C50.6+339+46.8+329.6+46.8+316.8L47.4+310.2C51.8+269+57+226.2+63+181.8C69.4+137+74.8+102.6+79.2+78.6L32.4+91.8L25.2+93C17.6+93+11.6+90+7.19997+84C2.79997+78+0.599976+71.2+0.599976+63.6L1.19997+58.2C1.99997+50.6+4.39997+44.4+8.39997+39.6C12.4+34.8+20+30+31.2+25.2C42.8+20.4+60+15.2+82.8+9.59999L108+3.59996C117.2+1.59996+124.8+0.599976+130.8+0.599976C142.4+0.599976+151+3.59997+156.6+9.59999C162.6+15.6+165.6+24+165.6+34.8C165.6+39.6+165+44.8+163.8+50.4C157.4+81.6+145.2+170.4+127.2+316.8C124+341.6+109.8+354+84.6+354Z" />
  <path fill="#f0932b" d="M316.186+354C276.986+354+246.586+341.2+224.986+315.6C203.786+290+193.186+253.4+193.186+205.8C193.186+165.4+199.386+129.8+211.786+99C224.586+67.8+242.186+43.6+264.586+26.4C287.386+9.19998+313.786+0.599976+343.786+0.599976C382.986+0.599976+413.186+13.4+434.386+39C455.986+64.6+466.786+101.2+466.786+148.8C466.786+189.2+460.386+225+447.586+256.2C435.186+287+417.586+311+394.786+328.2C372.386+345.4+346.186+354+316.186+354ZM322.186+286.8C343.786+286.8+360.786+274.8+373.186+250.8C385.586+226.8+391.786+194.2+391.786+153C391.786+125.4+387.186+104.4+377.986+90C368.786+75.2+355.386+67.8+337.786+67.8C316.186+67.8+299.186+80+286.786+104.4C274.386+128.4+268.186+161+268.186+202.2C268.186+229.8+272.586+250.8+281.386+265.2C290.586+279.6+304.186+286.8+322.186+286.8Z" />
  <path fill="#4834d4" d="M575.967+354C565.967+354+557.167+351+549.567+345C541.967+339+538.167+329.6+538.167+316.8L538.767+310.2C543.167+269+548.367+226.2+554.367+181.8C560.767+137+566.167+102.6+570.567+78.6L523.767+91.8L516.567+93C508.967+93+502.967+90+498.567+84C494.167+78+491.967+71.2+491.967+63.6L492.567+58.2C493.367+50.6+495.767+44.4+499.767+39.6C503.767+34.8+511.367+30+522.567+25.2C534.167+20.4+551.367+15.2+574.167+9.59999L599.367+3.59996C608.567+1.59996+616.167+0.599976+622.167+0.599976C633.767+0.599976+642.367+3.59997+647.967+9.59999C653.967+15.6+656.967+24+656.967+34.8C656.967+39.6+656.367+44.8+655.167+50.4C648.767+81.6+636.567+170.4+618.567+316.8C615.367+341.6+601.167+354+575.967+354Z" />
  <path fill="#eb4d4b" d="M807.553+354C768.353+354+737.953+341.2+716.353+315.6C695.153+290+684.553+253.4+684.553+205.8C684.553+165.4+690.753+129.8+703.153+99C715.953+67.8+733.553+43.6+755.953+26.4C778.753+9.19998+805.153+0.599976+835.153+0.599976C874.353+0.599976+904.553+13.4+925.753+39C947.353+64.6+958.153+101.2+958.153+148.8C958.153+189.2+951.753+225+938.953+256.2C926.553+287+908.953+311+886.153+328.2C863.753+345.4+837.553+354+807.553+354ZM813.553+286.8C835.153+286.8+852.153+274.8+864.553+250.8C876.953+226.8+883.153+194.2+883.153+153C883.153+125.4+878.553+104.4+869.353+90C860.153+75.2+846.753+67.8+829.153+67.8C807.553+67.8+790.553+80+778.153+104.4C765.753+128.4+759.553+161+759.553+202.2C759.553+229.8+763.953+250.8+772.753+265.2C781.953+279.6+795.553+286.8+813.553+286.8Z" />
</svg>
